<?xml version="1.0" encoding="UTF-8"?>
<svg id="artwork" xmlns="http://www.w3.org/2000/svg" viewBox="0 0 176.81 68.02">
  <defs>
    <style>
      .cls-1 {
        fill: rgba(255, 255, 255, 0);
      }

      .cls-1, .cls-2, .cls-3, .cls-4, .cls-5, .cls-6, .cls-7, .cls-8 {
        stroke-width: 0px;
      }

      .cls-9 {
        stroke: #fff;
        stroke-miterlimit: 10;
        stroke-width: .2px;
      }

      .cls-9, .cls-6 {
        fill: #fff;
      }

      .cls-3 {
        fill: #d75532;
      }

      .cls-4 {
        fill: #a7a6a6;
      }

      .cls-5 {
        fill: #00a176;
      }

      .cls-7 {
        fill: #ffcc32;
      }

      .cls-8 {
        fill: #0075bc;
      }
    </style>
  </defs>
  <g>
    <rect class="cls-1" width="176.81" height="68.02"/>
    <path class="cls-2" d="M159.7,56.68H17.11c-3.14,0-5.7-2.55-5.7-5.67V17c0-3.12,2.57-5.67,5.7-5.67h142.59c3.14,0,5.7,2.55,5.7,5.67v34.01c0,3.12-2.57,5.67-5.7,5.67Z"/>
    <path class="cls-4" d="M159.7,12.24c2.64,0,4.79,2.14,4.79,4.76v34.01c0,2.63-2.15,4.76-4.79,4.76H17.11c-2.64,0-4.79-2.14-4.79-4.76V17c0-2.63,2.15-4.76,4.79-4.76h142.59M159.7,11.34H17.11c-3.14,0-5.7,2.55-5.7,5.67v34.01c0,3.12,2.57,5.67,5.7,5.67h142.59c3.14,0,5.7-2.55,5.7-5.67V17c0-3.12-2.57-5.67-5.7-5.67h0Z"/>
    <g>
      <path class="cls-3" d="M35.04,33.36l-12.14,12.81s0,0,0,0c.37,1.39,1.65,2.42,3.17,2.42.61,0,1.18-.16,1.66-.45l.04-.02,13.67-7.84-6.4-6.92Z"/>
      <path class="cls-7" d="M47.33,31.18h-.01s-5.9-3.41-5.9-3.41l-6.65,5.88,6.67,6.63,5.87-3.37c1.03-.55,1.73-1.63,1.73-2.87s-.69-2.31-1.71-2.86Z"/>
      <path class="cls-8" d="M22.89,21.85c-.07.27-.11.55-.11.84v22.64c0,.29.04.57.11.84l12.56-12.48-12.56-11.83Z"/>
      <path class="cls-5" d="M35.13,34.01l6.29-6.25-13.65-7.87c-.5-.3-1.08-.47-1.7-.47-1.52,0-2.8,1.03-3.17,2.42,0,0,0,0,0,0l12.23,12.16Z"/>
    </g>
  </g>
  <g>
    <path class="cls-9" d="M65.5,22.95c0,.95-.28,1.71-.85,2.27-.64.67-1.48,1.01-2.51,1.01s-1.83-.34-2.52-1.02c-.69-.68-1.04-1.52-1.04-2.53s.35-1.85,1.04-2.53c.69-.68,1.53-1.02,2.52-1.02.49,0,.96.1,1.4.29.45.19.8.44,1.07.76l-.6.6c-.45-.54-1.08-.81-1.87-.81-.72,0-1.34.25-1.87.76-.53.5-.79,1.16-.79,1.96s.26,1.46.79,1.96c.53.5,1.15.76,1.87.76.76,0,1.4-.25,1.91-.76.33-.33.52-.79.57-1.38h-2.49v-.82h3.32c.03.18.05.35.05.51Z"/>
    <path class="cls-9" d="M70.75,20.11h-3.12v2.16h2.81v.82h-2.81v2.16h3.12v.84h-4v-6.8h4v.84Z"/>
    <path class="cls-9" d="M74.46,26.07h-.88v-5.97h-1.91v-.84h4.7v.84h-1.91v5.97Z"/>
    <path class="cls-9" d="M79.78,26.07v-6.8h.88v6.8h-.88Z"/>
    <path class="cls-9" d="M84.56,26.07h-.88v-5.97h-1.91v-.84h4.7v.84h-1.91v5.97Z"/>
    <path class="cls-9" d="M95.37,25.19c-.67.69-1.51,1.03-2.51,1.03s-1.84-.34-2.51-1.03c-.67-.69-1.01-1.53-1.01-2.52s.34-1.84,1.01-2.52c.67-.69,1.51-1.03,2.51-1.03s1.83.35,2.51,1.04c.68.69,1.01,1.53,1.01,2.52s-.34,1.84-1.01,2.52ZM91,24.63c.51.51,1.13.76,1.86.76s1.35-.25,1.86-.76c.51-.51.76-1.16.76-1.95s-.25-1.44-.76-1.95c-.51-.51-1.13-.76-1.86-.76s-1.35.25-1.86.76c-.51.51-.76,1.16-.76,1.95s.25,1.44.76,1.95Z"/>
    <path class="cls-9" d="M97.62,26.07v-6.8h1.07l3.33,5.29h.04l-.04-1.31v-3.98h.88v6.8h-.92l-3.48-5.55h-.04l.04,1.31v4.24h-.88Z"/>
  </g>
  <path class="cls-6" d="M89.13,35.99c-2.68,0-4.87,2.03-4.87,4.82s2.19,4.82,4.87,4.82,4.87-2.05,4.87-4.82-2.19-4.82-4.87-4.82ZM89.13,43.74c-1.47,0-2.74-1.21-2.74-2.92s1.27-2.92,2.74-2.92,2.74,1.19,2.74,2.92-1.27,2.92-2.74,2.92ZM78.51,35.99c-2.68,0-4.87,2.03-4.87,4.82s2.19,4.82,4.87,4.82,4.87-2.05,4.87-4.82-2.19-4.82-4.87-4.82ZM78.51,43.74c-1.47,0-2.74-1.21-2.74-2.92s1.27-2.92,2.74-2.92,2.74,1.19,2.74,2.92-1.27,2.92-2.74,2.92ZM65.87,37.47v2.05h4.93c-.15,1.15-.53,1.99-1.12,2.58-.72.71-1.84,1.5-3.8,1.5-3.03,0-5.4-2.43-5.4-5.44s2.37-5.44,5.4-5.44c1.64,0,2.83.64,3.71,1.46l1.45-1.44c-1.23-1.17-2.87-2.06-5.16-2.06-4.15,0-7.64,3.36-7.64,7.49s3.49,7.49,7.64,7.49c2.24,0,3.93-.73,5.26-2.1,1.36-1.35,1.78-3.25,1.78-4.78,0-.47-.04-.91-.11-1.28h-6.93ZM117.55,39.06c-.4-1.08-1.64-3.07-4.15-3.07s-4.58,1.95-4.58,4.82c0,2.7,2.06,4.82,4.81,4.82,2.22,0,3.51-1.35,4.04-2.14l-1.65-1.1c-.55.8-1.3,1.33-2.39,1.33s-1.86-.49-2.35-1.46l6.49-2.67-.22-.55ZM110.94,40.67c-.06-1.86,1.45-2.81,2.54-2.81.85,0,1.56.42,1.8,1.02l-4.34,1.79ZM105.66,45.35h2.13v-14.17h-2.13v14.17ZM102.17,37.07h-.07c-.48-.57-1.4-1.08-2.55-1.08-2.43,0-4.65,2.12-4.65,4.84s2.22,4.8,4.65,4.8c1.16,0,2.08-.51,2.55-1.1h.07v.69c0,1.84-.99,2.83-2.59,2.83-1.3,0-2.11-.93-2.44-1.72l-1.86.77c.53,1.28,1.95,2.85,4.3,2.85,2.5,0,4.61-1.46,4.61-5.02v-8.66h-2.02v.79ZM99.73,43.74c-1.47,0-2.7-1.22-2.7-2.9s1.23-2.94,2.7-2.94,2.59,1.24,2.59,2.94-1.14,2.9-2.59,2.9ZM127.54,31.17h-5.1v14.17h2.13v-5.37h2.97c2.36,0,4.68-1.7,4.68-4.4s-2.32-4.4-4.68-4.4ZM127.59,38h-3.03v-4.86h3.03c1.59,0,2.5,1.31,2.5,2.43s-.9,2.43-2.5,2.43ZM140.75,35.97c-1.54,0-3.14.67-3.8,2.17l1.89.78c.4-.78,1.16-1.04,1.94-1.04,1.1,0,2.22.66,2.24,1.82v.15c-.39-.22-1.21-.55-2.22-.55-2.04,0-4.11,1.11-4.11,3.19,0,1.9,1.67,3.12,3.54,3.12,1.43,0,2.22-.64,2.72-1.39h.07v1.09h2.05v-5.43c0-2.52-1.89-3.92-4.33-3.92ZM140.49,43.74c-.7,0-1.67-.35-1.67-1.2,0-1.09,1.21-1.51,2.26-1.51.94,0,1.38.2,1.94.47-.17,1.31-1.3,2.24-2.53,2.24ZM152.56,36.28l-2.44,6.14h-.07l-2.53-6.14h-2.29l3.8,8.59-2.16,4.78h2.22l5.85-13.36h-2.37ZM133.39,45.35h2.13v-14.17h-2.13v14.17Z"/>
</svg>